<?xml version="1.0" encoding="UTF-8" standalone="no"?>
<!DOCTYPE svg PUBLIC "-//W3C//DTD SVG 1.1//EN" "http://www.w3.org/Graphics/SVG/1.1/DTD/svg11.dtd">
<svg width="100%" height="100%" viewBox="0 0 262 86" version="1.1" xmlns="http://www.w3.org/2000/svg" xmlns:xlink="http://www.w3.org/1999/xlink" xml:space="preserve" style="fill-rule:evenodd;clip-rule:evenodd;stroke-linejoin:round;stroke-miterlimit:1.41421;">
    <rect id="Artboard2" x="0" y="0" width="261.729" height="85.795" style="fill:none;"/>
    <g>
        <g>
            <path d="M38.353,6.575c1.119,0 2.044,0.111 2.775,0.333c0.732,0.222 1.291,0.488 1.678,0.798c0.387,0.31 0.678,0.765 0.871,1.364c0.194,0.598 0.302,1.108 0.323,1.529c0.022,0.421 0.032,1.053 0.032,1.896l0,36.913c0,1.02 -0.032,1.785 -0.096,2.295c-0.065,0.51 -0.269,1.097 -0.614,1.762c-0.344,0.665 -0.925,1.131 -1.742,1.397c-0.817,0.266 -1.915,0.399 -3.291,0.399c-1.119,0 -2.044,-0.111 -2.775,-0.332c-0.732,-0.222 -1.291,-0.488 -1.678,-0.799c-0.387,-0.31 -0.678,-0.764 -0.871,-1.363c-0.194,-0.599 -0.302,-1.109 -0.323,-1.53c-0.022,-0.421 -0.032,-1.053 -0.032,-1.895l0,-13.502l-17.102,0l0,13.568c0,1.02 -0.033,1.785 -0.097,2.295c-0.065,0.51 -0.269,1.097 -0.613,1.762c-0.344,0.665 -0.925,1.131 -1.743,1.397c-0.817,0.266 -1.914,0.399 -3.291,0.399c-1.118,0 -2.043,-0.111 -2.775,-0.332c-0.731,-0.222 -1.291,-0.488 -1.678,-0.799c-0.387,-0.31 -0.677,-0.764 -0.871,-1.363c-0.194,-0.599 -0.301,-1.109 -0.323,-1.53c-0.021,-0.421 -0.032,-1.053 -0.032,-1.895l0,-36.914c0,-1.02 0.032,-1.784 0.097,-2.294c0.064,-0.51 0.269,-1.098 0.613,-1.763c0.344,-0.665 0.925,-1.131 1.742,-1.397c0.818,-0.266 1.915,-0.399 3.292,-0.399c1.118,0 2.043,0.111 2.775,0.333c0.731,0.222 1.29,0.488 1.678,0.798c0.387,0.31 0.677,0.765 0.871,1.364c0.193,0.598 0.301,1.108 0.322,1.529c0.022,0.421 0.033,1.053 0.033,1.896l0,13.568l17.102,0l0,-13.635c0,-1.02 0.032,-1.784 0.096,-2.294c0.065,-0.51 0.269,-1.098 0.613,-1.763c0.345,-0.665 0.925,-1.131 1.743,-1.397c0.817,-0.266 1.914,-0.399 3.291,-0.399Z" style="fill:#ff327b;fill-rule:nonzero;"/>
            <path d="M76.881,20.277c1.333,0 2.409,0.133 3.227,0.399c0.817,0.266 1.387,0.731 1.71,1.396c0.322,0.665 0.516,1.253 0.581,1.763c0.064,0.51 0.096,1.275 0.096,2.294l0,23.279c0,1.02 -0.032,1.785 -0.096,2.295c-0.065,0.51 -0.259,1.086 -0.581,1.729c-0.323,0.643 -0.893,1.098 -1.71,1.364c-0.818,0.266 -1.915,0.399 -3.292,0.399c-1.936,0 -3.302,-0.3 -4.098,-0.898c-0.796,-0.599 -1.258,-1.475 -1.387,-2.627c-1.592,2.35 -4.174,3.525 -7.744,3.525c-3.873,0 -7.401,-1.752 -10.584,-5.255c-3.184,-3.503 -4.776,-7.604 -4.776,-12.304c0,-4.567 1.603,-8.591 4.808,-12.072c3.205,-3.481 6.722,-5.221 10.552,-5.221c1.462,0 2.796,0.266 4.001,0.798c1.204,0.532 2.043,1.031 2.517,1.497c0.473,0.465 0.86,0.92 1.161,1.363c0.129,-1.241 0.592,-2.173 1.388,-2.793c0.796,-0.621 2.205,-0.931 4.227,-0.931Zm-11.552,23.278c1.549,0 2.85,-0.598 3.904,-1.796c1.054,-1.197 1.581,-2.527 1.581,-3.99c0,-1.419 -0.505,-2.749 -1.516,-3.991c-1.011,-1.241 -2.377,-1.862 -4.098,-1.862c-1.678,0 -3.044,0.621 -4.098,1.862c-1.054,1.242 -1.581,2.594 -1.581,4.057c0,1.464 0.559,2.783 1.678,3.958c1.118,1.175 2.495,1.762 4.13,1.762Z" style="fill:#ff327b;fill-rule:nonzero;"/>
            <path d="M106.309,20.343c3.829,0 7.346,1.752 10.551,5.254c3.206,3.503 4.808,7.516 4.808,12.039c0,4.744 -1.592,8.857 -4.775,12.338c-3.184,3.48 -6.712,5.221 -10.584,5.221c-3.442,0 -5.937,-1.065 -7.486,-3.193c-0.344,2.173 -2.194,3.259 -5.55,3.259c-1.334,0 -2.41,-0.133 -3.227,-0.399c-0.818,-0.266 -1.388,-0.732 -1.71,-1.397c-0.323,-0.665 -0.517,-1.252 -0.581,-1.762c-0.065,-0.51 -0.097,-1.275 -0.097,-2.295l0,-39.707c0,-1.019 0.032,-1.784 0.097,-2.294c0.064,-0.51 0.258,-1.087 0.581,-1.73c0.322,-0.642 0.892,-1.097 1.71,-1.363c0.817,-0.266 1.914,-0.399 3.291,-0.399c1.334,0 2.41,0.133 3.227,0.399c0.817,0.266 1.388,0.732 1.71,1.397c0.323,0.665 0.516,1.252 0.581,1.762c0.065,0.51 0.097,1.275 0.097,2.295l0,13.834c1.721,-2.173 4.173,-3.259 7.357,-3.259Zm-5.647,21.483c1.054,1.197 2.377,1.796 3.969,1.796c1.592,0 2.947,-0.599 4.066,-1.796c1.118,-1.197 1.678,-2.527 1.678,-3.991c0,-1.463 -0.517,-2.804 -1.549,-4.024c-1.033,-1.219 -2.41,-1.829 -4.131,-1.829c-1.721,0 -3.087,0.621 -4.098,1.863c-1.011,1.241 -1.516,2.571 -1.516,3.99c0,1.464 0.527,2.794 1.581,3.991Z" style="fill:#ff327b;fill-rule:nonzero;"/>
            <path d="M158.647,33.313c0,2.926 -0.656,5.043 -1.968,6.351c-1.313,1.308 -2.765,1.962 -4.357,1.962l-15.294,0c0,1.242 0.709,2.284 2.129,3.126c1.42,0.843 2.947,1.264 4.582,1.264c1.162,0 2.259,-0.089 3.292,-0.266c1.032,-0.177 1.785,-0.355 2.258,-0.532l0.71,-0.266c1.033,-0.488 1.893,-0.732 2.582,-0.732c1.376,0 2.559,0.998 3.549,2.993c0.559,1.198 0.839,2.217 0.839,3.06c0,3.946 -4.582,5.919 -13.746,5.919c-3.184,0 -6.013,-0.565 -8.486,-1.696c-2.474,-1.13 -4.4,-2.616 -5.776,-4.456c-1.377,-1.84 -2.399,-3.78 -3.066,-5.82c-0.667,-2.039 -1,-4.123 -1,-6.252c0,-5.587 1.753,-10.054 5.26,-13.402c3.506,-3.347 7.884,-5.021 13.132,-5.021c2.109,0 4.045,0.299 5.809,0.898c1.764,0.598 3.226,1.374 4.388,2.328c1.162,0.953 2.14,2.05 2.936,3.292c0.796,1.242 1.366,2.472 1.711,3.691c0.344,1.22 0.516,2.406 0.516,3.559Zm-13.617,2.261c1.635,0 2.452,-0.709 2.452,-2.128c0,-1.02 -0.376,-1.84 -1.129,-2.461c-0.753,-0.621 -1.839,-0.931 -3.259,-0.931c-1.377,0 -2.754,0.587 -4.13,1.762c-1.377,1.175 -2.065,2.428 -2.065,3.758l8.131,0Z" style="fill:#ff327b;fill-rule:nonzero;"/>
            <path d="M190.527,20.277c1.334,0 2.41,0.133 3.227,0.399c0.817,0.266 1.388,0.731 1.71,1.396c0.323,0.665 0.516,1.253 0.581,1.763c0.065,0.51 0.097,1.275 0.097,2.294l0,23.279c0,1.02 -0.032,1.785 -0.097,2.295c-0.065,0.51 -0.258,1.086 -0.581,1.729c-0.322,0.643 -0.893,1.098 -1.71,1.364c-0.817,0.266 -1.915,0.399 -3.291,0.399c-1.936,0 -3.302,-0.3 -4.098,-0.898c-0.796,-0.599 -1.259,-1.475 -1.388,-2.627c-1.592,2.35 -4.173,3.525 -7.744,3.525c-3.872,0 -7.4,-1.752 -10.584,-5.255c-3.183,-3.503 -4.775,-7.604 -4.775,-12.304c0,-4.567 1.602,-8.591 4.808,-12.072c3.205,-3.481 6.722,-5.221 10.551,-5.221c1.463,0 2.797,0.266 4.001,0.798c1.205,0.532 2.044,1.031 2.517,1.497c0.473,0.465 0.861,0.92 1.162,1.363c0.129,-1.241 0.591,-2.173 1.387,-2.793c0.796,-0.621 2.205,-0.931 4.227,-0.931Zm-11.552,23.278c1.549,0 2.851,-0.598 3.905,-1.796c1.054,-1.197 1.581,-2.527 1.581,-3.99c0,-1.419 -0.506,-2.749 -1.517,-3.991c-1.011,-1.241 -2.377,-1.862 -4.098,-1.862c-1.678,0 -3.044,0.621 -4.098,1.862c-1.054,1.242 -1.581,2.594 -1.581,4.057c0,1.464 0.56,2.783 1.678,3.958c1.119,1.175 2.496,1.762 4.13,1.762Z" style="fill:#ff327b;fill-rule:nonzero;"/>
            <path d="M221.052,32.049l-4.194,-0.266l0,9.178c0,1.198 0.182,2.062 0.548,2.594c0.366,0.532 1.022,0.798 1.969,0.798c1.075,0 1.882,0.034 2.42,0.1c0.537,0.067 1.097,0.266 1.677,0.599c0.581,0.332 0.979,0.853 1.194,1.563c0.216,0.709 0.323,1.685 0.323,2.926c0,1.375 -0.14,2.483 -0.419,3.326c-0.28,0.842 -0.743,1.43 -1.388,1.762c-0.645,0.333 -1.215,0.532 -1.71,0.599c-0.495,0.066 -1.216,0.1 -2.162,0.1c-4.474,0 -7.873,-1.042 -10.197,-3.126c-2.323,-2.084 -3.484,-5.609 -3.484,-10.576l0,-9.843c-0.818,0.133 -1.592,0.199 -2.324,0.199c-1.161,0 -2.054,-0.376 -2.678,-1.13c-0.624,-0.754 -0.936,-2.328 -0.936,-4.723c0,-1.241 0.108,-2.272 0.323,-3.092c0.215,-0.821 0.527,-1.408 0.936,-1.763c0.408,-0.355 0.806,-0.587 1.194,-0.698c0.387,-0.111 0.839,-0.166 1.355,-0.166l2.13,0.266l0,-6.851c0,-1.02 0.032,-1.774 0.096,-2.261c0.065,-0.488 0.258,-1.031 0.581,-1.63c0.323,-0.598 0.893,-1.02 1.71,-1.264c0.818,-0.243 1.915,-0.365 3.292,-0.365c1.075,0 1.968,0.11 2.678,0.332c0.71,0.222 1.258,0.477 1.645,0.765c0.388,0.288 0.678,0.732 0.872,1.33c0.193,0.599 0.301,1.12 0.322,1.563c0.022,0.444 0.033,1.064 0.033,1.863l0,6.518c1.893,-0.178 3.312,-0.266 4.259,-0.266c0.99,0 1.732,0.033 2.226,0.099c0.495,0.067 1.055,0.266 1.678,0.599c0.624,0.332 1.065,0.92 1.323,1.762c0.258,0.843 0.388,1.974 0.388,3.393c0,1.374 -0.13,2.483 -0.388,3.325c-0.258,0.843 -0.71,1.43 -1.355,1.763c-0.645,0.332 -1.215,0.532 -1.71,0.598c-0.495,0.067 -1.237,0.1 -2.227,0.1Z" style="fill:#ff327b;fill-rule:nonzero;"/>
            <path d="M242.801,55.926c-4.346,0 -8.433,-1.241 -12.262,-3.724c-0.817,-0.532 -1.226,-1.308 -1.226,-2.328c0,-1.286 0.817,-3.104 2.452,-5.454c0.474,-0.754 1.205,-1.131 2.194,-1.131c1.119,0 2.431,0.466 3.937,1.397c2.108,1.241 3.894,1.862 5.357,1.862c2.624,0 3.936,-0.532 3.936,-1.596c0,-0.443 -0.409,-0.82 -1.226,-1.131c-0.817,-0.31 -1.85,-0.554 -3.098,-0.731c-1.247,-0.178 -2.592,-0.543 -4.033,-1.098c-1.441,-0.554 -2.786,-1.23 -4.034,-2.028c-1.247,-0.798 -2.28,-2.051 -3.097,-3.758c-0.818,-1.707 -1.226,-3.736 -1.226,-6.086c0,-7.006 4.668,-10.509 14.004,-10.509c3.054,0 6.195,0.754 9.422,2.262c1.506,0.709 2.259,1.685 2.259,2.926c0,0.887 -0.452,2.084 -1.356,3.592c-0.989,1.596 -1.979,2.394 -2.968,2.394c-0.517,0 -1.248,-0.221 -2.194,-0.665c-1.85,-0.887 -3.593,-1.33 -5.228,-1.33c-2.538,0 -3.807,0.488 -3.807,1.463c0,0.71 0.419,1.275 1.258,1.696c0.839,0.421 1.893,0.71 3.162,0.865c1.269,0.155 2.635,0.454 4.098,0.898c1.463,0.443 2.829,0.986 4.098,1.629c1.269,0.643 2.323,1.729 3.162,3.259c0.839,1.53 1.259,3.403 1.259,5.62c0,2.395 -0.42,4.401 -1.259,6.02c-0.839,1.618 -2.022,2.815 -3.549,3.591c-1.527,0.776 -3.076,1.319 -4.647,1.63c-1.57,0.31 -3.366,0.465 -5.388,0.465Z" style="fill:#ff327b;fill-rule:nonzero;"/>
        </g>
        <g>
            <path d="M17.42,75.214l-4.876,-11.2c-0.372,-0.894 -0.909,-1.299 -1.653,-1.299c-0.723,0 -1.281,0.405 -1.632,1.299l-4.876,11.2c-0.124,0.298 -0.227,0.66 -0.227,1.022c0,0.852 0.723,1.576 1.653,1.576c0.744,0 1.343,-0.447 1.632,-1.129l0.785,-1.916l5.351,0l0.785,1.916c0.269,0.682 0.889,1.129 1.633,1.129c0.929,0 1.653,-0.724 1.653,-1.576c0,-0.362 -0.104,-0.724 -0.228,-1.022Zm-8.078,-3.192l1.549,-3.791l1.55,3.791l-3.099,0Z" style="fill:#272838;fill-rule:nonzero;"/>
            <path d="M27.878,62.523c-0.888,0 -1.631,0.767 -1.631,1.683l0,3.811c-0.021,0.085 -0.021,0.17 -0.021,0.255l0,-0.191c-0.269,-0.745 -1.282,-1.554 -2.688,-1.554c-2.232,0 -4.958,1.873 -4.958,5.664c0,3.898 2.684,5.685 4.958,5.685c1.509,0 2.419,-0.787 2.729,-1.34c0.165,0.766 0.847,1.319 1.611,1.319c0.888,0 1.693,-0.745 1.693,-1.681l0,-11.968c0,-0.916 -0.785,-1.683 -1.693,-1.683Zm-3.72,12.459c-1.178,0 -2.274,-0.958 -2.274,-2.791c0,-1.811 1.096,-2.77 2.274,-2.77c0.91,0 2.213,0.682 2.213,2.77c0,2.131 -1.303,2.791 -2.213,2.791Z" style="fill:#272838;fill-rule:nonzero;"/>
            <path d="M40.938,62.523c-0.888,0 -1.631,0.767 -1.631,1.683l0,3.811c-0.021,0.085 -0.021,0.17 -0.021,0.255l0,-0.191c-0.269,-0.745 -1.282,-1.554 -2.688,-1.554c-2.232,0 -4.958,1.873 -4.958,5.664c0,3.898 2.684,5.685 4.958,5.685c1.509,0 2.419,-0.787 2.729,-1.34c0.166,0.766 0.847,1.319 1.611,1.319c0.888,0 1.693,-0.745 1.693,-1.681l0,-11.968c0,-0.916 -0.784,-1.683 -1.693,-1.683Zm-3.72,12.459c-1.178,0 -2.274,-0.958 -2.274,-2.791c0,-1.811 1.096,-2.77 2.274,-2.77c0.91,0 2.213,0.682 2.213,2.77c0,2.131 -1.303,2.791 -2.213,2.791Z" style="fill:#272838;fill-rule:nonzero;"/>
            <path d="M61.994,75.086l-2.457,-3.024c1.673,-0.829 2.684,-2.447 2.684,-4.301c0,-2.684 -2.085,-4.939 -5.309,-4.939l-3.782,0c-1.094,0 -1.879,0.808 -1.879,1.936l0,11.393c0,0.958 0.764,1.746 1.714,1.746c0.929,0 1.672,-0.788 1.672,-1.746l0,-3.514l1.551,0l3.432,4.515c0.268,0.383 0.702,0.639 1.239,0.639c0.887,0 1.548,-0.745 1.548,-1.64c0,-0.426 -0.206,-0.767 -0.413,-1.065Zm-7.357,-9.285l2.089,0c1.178,0 2.212,0.362 2.212,1.96c0,1.577 -1.034,1.897 -2.212,1.897l-2.089,0l0,-3.857Z" style="fill:#272838;fill-rule:nonzero;"/>
            <path d="M71.13,66.549c-2.109,0 -3.288,1.638 -3.35,2.425l0,-4.747c0,-0.937 -0.764,-1.704 -1.652,-1.704c-0.888,0 -1.652,0.767 -1.652,1.704l0,11.924c0,0.937 0.764,1.683 1.652,1.683c0.888,0 1.652,-0.746 1.652,-1.683l0,-4.728c0,-0.234 0.372,-2.002 2.068,-2.002c1.096,0 1.84,0.746 1.84,2.407l0,4.323c0,0.937 0.744,1.683 1.632,1.683c0.908,0 1.652,-0.746 1.652,-1.683l0,-4.323c0,-3.747 -1.694,-5.279 -3.842,-5.279Z" style="fill:#272838;fill-rule:nonzero;"/>
            <path d="M85.78,66.591c-0.62,0 -1.219,0.383 -1.571,1.214l-2.499,5.707l-2.418,-5.707c-0.351,-0.831 -0.95,-1.214 -1.57,-1.214c-0.868,0 -1.508,0.703 -1.508,1.512c0,0.319 0.103,0.596 0.186,0.809l3.719,8.241l-1.054,2.406c-0.083,0.213 -0.186,0.49 -0.186,0.809c0,0.809 0.599,1.512 1.467,1.512c0.62,0 1.219,-0.383 1.57,-1.214l5.186,-11.754c0.103,-0.213 0.206,-0.49 0.206,-0.809c0,-0.809 -0.64,-1.512 -1.528,-1.512Z" style="fill:#272838;fill-rule:nonzero;"/>
            <path d="M94.727,74.855c-0.227,-0.022 -0.579,0.063 -0.785,0.063c-0.393,0 -0.558,-0.362 -0.558,-0.937l0,-4.709l1.198,0c0.806,0 1.302,-0.553 1.302,-1.298c0,-0.766 -0.496,-1.319 -1.302,-1.319l-1.198,0l0,-1.235c0,-0.937 -0.764,-1.704 -1.652,-1.704c-0.888,0 -1.652,0.767 -1.652,1.704l0,1.235l-0.413,0c-0.806,0 -1.323,0.553 -1.323,1.319c0,0.745 0.517,1.298 1.323,1.298l0.413,0l0,4.538c0,3.513 1.631,4.024 3.221,4.024c1.674,0 2.583,-0.639 2.583,-1.745c0,-0.788 -0.434,-1.234 -1.157,-1.234Z" style="fill:#272838;fill-rule:nonzero;"/>
            <path d="M104.4,66.549c-2.109,0 -3.288,1.638 -3.35,2.425l0,-4.747c0,-0.937 -0.764,-1.704 -1.651,-1.704c-0.888,0 -1.652,0.767 -1.652,1.704l0,11.924c0,0.937 0.764,1.683 1.652,1.683c0.887,0 1.651,-0.746 1.651,-1.683l0,-4.728c0,-0.234 0.373,-2.002 2.068,-2.002c1.096,0 1.841,0.746 1.841,2.407l0,4.323c0,0.937 0.743,1.683 1.631,1.683c0.908,0 1.652,-0.746 1.652,-1.683l0,-4.323c0,-3.747 -1.693,-5.279 -3.842,-5.279Z" style="fill:#272838;fill-rule:nonzero;"/>
            <path d="M124.569,66.549c-1.902,0 -3.184,1.276 -3.742,2.574c-0.62,-1.787 -1.92,-2.574 -3.449,-2.574c-2.109,0 -3.288,1.638 -3.35,2.425l0,-0.659c0,-0.958 -0.764,-1.724 -1.652,-1.724c-0.888,0 -1.652,0.766 -1.652,1.724l0,7.836c0,0.937 0.764,1.683 1.652,1.683c0.888,0 1.652,-0.746 1.652,-1.683l0,-4.728c0,-0.234 0.372,-2.002 2.068,-2.002c1.096,0 1.84,0.746 1.84,2.407l0,4.323c0,0.937 0.743,1.683 1.631,1.683c0.909,0 1.652,-0.746 1.652,-1.683l0,-4.323l0,-0.405c0,-0.234 0.393,-2.002 2.089,-2.002c1.075,0 1.819,0.746 1.819,2.407l0,4.323c0,0.937 0.764,1.683 1.652,1.683c0.888,0 1.652,-0.746 1.652,-1.683l0,-4.323c0,-3.747 -1.714,-5.279 -3.862,-5.279Z" style="fill:#272838;fill-rule:nonzero;"/>
            <path d="M146.43,62.822l-8.49,0c-0.806,0 -1.509,0.681 -1.509,1.553c0,0.851 0.703,1.532 1.509,1.532l2.541,0l0,10.159c0,1.001 0.785,1.831 1.714,1.831c0.888,0 1.673,-0.83 1.673,-1.831l0,-10.159l2.562,0c0.806,0 1.488,-0.681 1.488,-1.532c0,-0.872 -0.682,-1.553 -1.488,-1.553Z" style="fill:#272838;fill-rule:nonzero;"/>
            <path d="M152.693,66.527c-2.378,0 -5.599,1.915 -5.599,5.707c0,3.812 3.221,5.642 5.599,5.642c2.357,0 5.578,-1.83 5.578,-5.642c0,-3.792 -3.221,-5.707 -5.578,-5.707Zm0,2.937c1.282,0 2.336,1.108 2.336,2.77c0,1.598 -1.054,2.706 -2.336,2.706c-1.303,0 -2.336,-1.108 -2.336,-2.706c0,-1.662 1.033,-2.77 2.336,-2.77Z" style="fill:#272838;fill-rule:nonzero;"/>
            <path d="M176.291,62.736c-0.496,0 -0.93,0.235 -1.219,0.639l-3.12,4.899l-3.119,-4.899c-0.31,-0.404 -0.723,-0.639 -1.239,-0.639c-0.848,0 -1.55,0.725 -1.55,1.598c0,0.34 0.082,0.617 0.248,0.873l3.988,6.027l0,5.005c0,0.937 0.785,1.661 1.672,1.661c0.868,0 1.673,-0.724 1.673,-1.661l0,-5.005l3.988,-6.027c0.166,-0.256 0.248,-0.533 0.248,-0.873c0,-0.873 -0.702,-1.598 -1.57,-1.598Z" style="fill:#272838;fill-rule:nonzero;"/>
            <path d="M183.235,66.527c-2.377,0 -5.598,1.915 -5.598,5.707c0,3.812 3.221,5.642 5.598,5.642c2.358,0 5.579,-1.83 5.579,-5.642c0,-3.792 -3.221,-5.707 -5.579,-5.707Zm0,2.937c1.282,0 2.337,1.108 2.337,2.77c0,1.598 -1.055,2.706 -2.337,2.706c-1.302,0 -2.336,-1.108 -2.336,-2.706c0,-1.662 1.034,-2.77 2.336,-2.77Z" style="fill:#272838;fill-rule:nonzero;"/>
            <path d="M194.724,77.855c2.109,0 3.288,-1.639 3.35,-2.426l0,0.66c0,0.957 0.764,1.723 1.652,1.723c0.888,0 1.652,-0.766 1.652,-1.723l0,-7.837c0,-0.937 -0.764,-1.682 -1.652,-1.682c-0.888,0 -1.652,0.745 -1.652,1.682l0,4.728c0,0.235 -0.372,2.002 -2.068,2.002c-1.096,0 -1.84,-0.745 -1.84,-2.406l0,-4.324c0,-0.937 -0.744,-1.682 -1.631,-1.682c-0.909,0 -1.652,0.745 -1.652,1.682l0,4.324c0,3.747 1.693,5.279 3.841,5.279Z" style="fill:#272838;fill-rule:nonzero;"/>
            <path d="M210.119,66.549c-1.653,0 -2.893,1.638 -2.955,2.425l0,-0.659c0,-0.958 -0.764,-1.724 -1.652,-1.724c-0.888,0 -1.652,0.766 -1.652,1.724l0,7.836c0,0.916 0.764,1.683 1.652,1.683c0.888,0 1.652,-0.767 1.652,-1.683l0,-4.728c0.041,-0.618 0.909,-1.746 2.356,-1.746c1.405,0 2.087,-0.639 2.087,-1.596c0,-0.809 -0.496,-1.532 -1.488,-1.532Z" style="fill:#272838;fill-rule:nonzero;"/>
            <path d="M223.51,74.642l0,-10.095c0,-0.98 -0.744,-1.789 -1.673,-1.789c-0.95,0 -1.714,0.809 -1.714,1.789l0,11.244c0,1.127 0.785,1.936 1.879,1.936l6.24,0c0.806,0 1.488,-0.681 1.488,-1.532c0,-0.872 -0.682,-1.553 -1.488,-1.553l-4.732,0Z" style="fill:#272838;fill-rule:nonzero;"/>
            <path d="M233.368,65.651c0.888,0 1.673,-0.766 1.673,-1.659c0,-0.915 -0.785,-1.682 -1.673,-1.682c-0.888,0 -1.672,0.767 -1.672,1.682c0,0.893 0.784,1.659 1.672,1.659Zm0,0.94c-0.888,0 -1.652,0.767 -1.652,1.725l0,7.816c0,0.959 0.764,1.726 1.652,1.726c0.888,0 1.652,-0.767 1.652,-1.726l0,-7.816c0,-0.958 -0.764,-1.725 -1.652,-1.725Z" style="fill:#272838;fill-rule:nonzero;"/>
            <path d="M242.893,65.098c0.145,0 0.166,0 0.434,0.064c0.455,0.128 0.786,0.192 0.971,0.192c0.703,0 1.22,-0.469 1.22,-1.192c0,-0.575 -0.29,-1 -0.889,-1.405c-0.578,-0.319 -1.343,-0.51 -2.252,-0.51c-1.26,0 -3.821,0.574 -3.821,3.661l0,0.747l-0.537,0c-0.806,0 -1.323,0.553 -1.323,1.319c0,0.745 0.517,1.298 1.323,1.298l0.537,0l0,6.9c0,0.937 0.764,1.683 1.652,1.683c0.888,0 1.652,-0.746 1.652,-1.683l0,-6.9l1.281,0c0.806,0 1.302,-0.553 1.302,-1.298c0,-0.766 -0.496,-1.319 -1.302,-1.319l-1.281,0l0,-0.555c0,0.086 -0.083,-1.002 1.033,-1.002Z" style="fill:#272838;fill-rule:nonzero;"/>
            <path d="M250.415,66.527c-2.355,0 -5.515,1.83 -5.515,5.707c0,3.876 2.953,5.6 5.763,5.6c1.302,0 2.253,-0.341 2.955,-0.788c0.62,-0.489 0.786,-0.978 0.786,-1.383c0,-0.638 -0.414,-1.129 -1.096,-1.129c-0.413,0 -0.764,0.192 -1.198,0.342c-0.579,0.149 -0.682,0.234 -1.302,0.234c-1.343,0 -2.191,-0.64 -2.48,-1.728l5.27,0.064c1.322,0 2.025,-0.446 2.025,-1.787c0,-3.195 -2.852,-5.132 -5.208,-5.132Zm0,2.937c0.951,0 1.757,0.448 1.963,1.664l-4.05,0c0.186,-1.216 1.116,-1.664 2.087,-1.664Z" style="fill:#272838;fill-rule:nonzero;"/>
        </g>
    </g>
</svg>
